<?xml version="1.0" encoding="UTF-8" standalone="no"?>
<!DOCTYPE svg PUBLIC "-//W3C//DTD SVG 1.1//EN"
 "http://www.w3.org/Graphics/SVG/1.1/DTD/svg11.dtd">
<!-- Generated by graphviz version 14.1.3 (20260303.0454)
 -->
<!-- Title: Civilization Pages: 1 -->
<svg width="2903pt" height="66pt"
 viewBox="0.00 0.00 2903.00 66.00" xmlns="http://www.w3.org/2000/svg" xmlns:xlink="http://www.w3.org/1999/xlink">
<g id="graph0" class="graph" transform="scale(1 1) rotate(0) translate(4 61.98)">
<title>Civilization</title>
<polygon fill="white" stroke="none" points="-4,4 -4,-61.98 2898.92,-61.98 2898.92,4 -4,4"/>
<!-- branch_1773480740170_0 -->
<g id="node1" class="node">
<title>branch_1773480740170_0</title>
<ellipse fill="none" stroke="black" cx="104.12" cy="-28.99" rx="104.12" ry="28.99"/>
<text xml:space="preserve" text-anchor="middle" x="104.12" y="-32.19" font-family="Times New Roman,serif" font-size="14.00">branch_1773480740170</text>
<text xml:space="preserve" text-anchor="middle" x="104.12" y="-15.69" font-family="Times New Roman,serif" font-size="14.00">fitness:99.2</text>
</g>
<!-- branch_1773480740156_1 -->
<g id="node2" class="node">
<title>branch_1773480740156_1</title>
<ellipse fill="none" stroke="black" cx="348.36" cy="-28.99" rx="104.12" ry="28.99"/>
<text xml:space="preserve" text-anchor="middle" x="348.36" y="-32.19" font-family="Times New Roman,serif" font-size="14.00">branch_1773480740156</text>
<text xml:space="preserve" text-anchor="middle" x="348.36" y="-15.69" font-family="Times New Roman,serif" font-size="14.00">fitness:102.1</text>
</g>
<!-- branch_1773480740170_0&#45;&gt;branch_1773480740156_1 -->
<g id="edge1" class="edge">
<title>branch_1773480740170_0&#45;&gt;branch_1773480740156_1</title>
<path fill="none" stroke="black" d="M208.56,-28.99C216.51,-28.99 224.57,-28.99 232.59,-28.99"/>
<polygon fill="black" stroke="black" points="232.38,-32.49 242.38,-28.99 232.38,-25.49 232.38,-32.49"/>
</g>
<!-- branch_1773480740156_2 -->
<g id="node3" class="node">
<title>branch_1773480740156_2</title>
<ellipse fill="none" stroke="black" cx="592.61" cy="-28.99" rx="104.12" ry="28.99"/>
<text xml:space="preserve" text-anchor="middle" x="592.61" y="-32.19" font-family="Times New Roman,serif" font-size="14.00">branch_1773480740156</text>
<text xml:space="preserve" text-anchor="middle" x="592.61" y="-15.69" font-family="Times New Roman,serif" font-size="14.00">fitness:106.1</text>
</g>
<!-- branch_1773480740156_1&#45;&gt;branch_1773480740156_2 -->
<g id="edge2" class="edge">
<title>branch_1773480740156_1&#45;&gt;branch_1773480740156_2</title>
<path fill="none" stroke="black" d="M452.8,-28.99C460.75,-28.99 468.81,-28.99 476.83,-28.99"/>
<polygon fill="black" stroke="black" points="476.62,-32.49 486.62,-28.99 476.62,-25.49 476.62,-32.49"/>
</g>
<!-- branch_1773480740156_3 -->
<g id="node4" class="node">
<title>branch_1773480740156_3</title>
<ellipse fill="none" stroke="black" cx="836.85" cy="-28.99" rx="104.12" ry="28.99"/>
<text xml:space="preserve" text-anchor="middle" x="836.85" y="-32.19" font-family="Times New Roman,serif" font-size="14.00">branch_1773480740156</text>
<text xml:space="preserve" text-anchor="middle" x="836.85" y="-15.69" font-family="Times New Roman,serif" font-size="14.00">fitness:104.0</text>
</g>
<!-- branch_1773480740156_2&#45;&gt;branch_1773480740156_3 -->
<g id="edge3" class="edge">
<title>branch_1773480740156_2&#45;&gt;branch_1773480740156_3</title>
<path fill="none" stroke="black" d="M697.04,-28.99C705,-28.99 713.05,-28.99 721.08,-28.99"/>
<polygon fill="black" stroke="black" points="720.86,-32.49 730.86,-28.99 720.86,-25.49 720.86,-32.49"/>
</g>
<!-- branch_1773480740170_4 -->
<g id="node5" class="node">
<title>branch_1773480740170_4</title>
<ellipse fill="none" stroke="black" cx="1081.09" cy="-28.99" rx="104.12" ry="28.99"/>
<text xml:space="preserve" text-anchor="middle" x="1081.09" y="-32.19" font-family="Times New Roman,serif" font-size="14.00">branch_1773480740170</text>
<text xml:space="preserve" text-anchor="middle" x="1081.09" y="-15.69" font-family="Times New Roman,serif" font-size="14.00">fitness:104.2</text>
</g>
<!-- branch_1773480740156_3&#45;&gt;branch_1773480740170_4 -->
<g id="edge4" class="edge">
<title>branch_1773480740156_3&#45;&gt;branch_1773480740170_4</title>
<path fill="none" stroke="black" d="M941.29,-28.99C949.24,-28.99 957.3,-28.99 965.32,-28.99"/>
<polygon fill="black" stroke="black" points="965.1,-32.49 975.1,-28.99 965.1,-25.49 965.1,-32.49"/>
</g>
<!-- branch_1773480602136_5 -->
<g id="node6" class="node">
<title>branch_1773480602136_5</title>
<ellipse fill="none" stroke="black" cx="1325.34" cy="-28.99" rx="104.12" ry="28.99"/>
<text xml:space="preserve" text-anchor="middle" x="1325.34" y="-32.19" font-family="Times New Roman,serif" font-size="14.00">branch_1773480602136</text>
<text xml:space="preserve" text-anchor="middle" x="1325.34" y="-15.69" font-family="Times New Roman,serif" font-size="14.00">fitness:107.1</text>
</g>
<!-- branch_1773480740170_4&#45;&gt;branch_1773480602136_5 -->
<g id="edge5" class="edge">
<title>branch_1773480740170_4&#45;&gt;branch_1773480602136_5</title>
<path fill="none" stroke="black" d="M1185.53,-28.99C1193.48,-28.99 1201.54,-28.99 1209.56,-28.99"/>
<polygon fill="black" stroke="black" points="1209.35,-32.49 1219.35,-28.99 1209.35,-25.49 1209.35,-32.49"/>
</g>
<!-- branch_1773480740184_6 -->
<g id="node7" class="node">
<title>branch_1773480740184_6</title>
<ellipse fill="none" stroke="black" cx="1569.58" cy="-28.99" rx="104.12" ry="28.99"/>
<text xml:space="preserve" text-anchor="middle" x="1569.58" y="-32.19" font-family="Times New Roman,serif" font-size="14.00">branch_1773480740184</text>
<text xml:space="preserve" text-anchor="middle" x="1569.58" y="-15.69" font-family="Times New Roman,serif" font-size="14.00">fitness:108.7</text>
</g>
<!-- branch_1773480602136_5&#45;&gt;branch_1773480740184_6 -->
<g id="edge6" class="edge">
<title>branch_1773480602136_5&#45;&gt;branch_1773480740184_6</title>
<path fill="none" stroke="black" d="M1429.77,-28.99C1437.73,-28.99 1445.78,-28.99 1453.8,-28.99"/>
<polygon fill="black" stroke="black" points="1453.59,-32.49 1463.59,-28.99 1453.59,-25.49 1453.59,-32.49"/>
</g>
<!-- branch_1773480740184_7 -->
<g id="node8" class="node">
<title>branch_1773480740184_7</title>
<ellipse fill="none" stroke="black" cx="1813.82" cy="-28.99" rx="104.12" ry="28.99"/>
<text xml:space="preserve" text-anchor="middle" x="1813.82" y="-32.19" font-family="Times New Roman,serif" font-size="14.00">branch_1773480740184</text>
<text xml:space="preserve" text-anchor="middle" x="1813.82" y="-15.69" font-family="Times New Roman,serif" font-size="14.00">fitness:112.7</text>
</g>
<!-- branch_1773480740184_6&#45;&gt;branch_1773480740184_7 -->
<g id="edge7" class="edge">
<title>branch_1773480740184_6&#45;&gt;branch_1773480740184_7</title>
<path fill="none" stroke="black" d="M1674.01,-28.99C1681.97,-28.99 1690.03,-28.99 1698.05,-28.99"/>
<polygon fill="black" stroke="black" points="1697.83,-32.49 1707.83,-28.99 1697.83,-25.49 1697.83,-32.49"/>
</g>
<!-- branch_1773480740184_8 -->
<g id="node9" class="node">
<title>branch_1773480740184_8</title>
<ellipse fill="none" stroke="black" cx="2058.07" cy="-28.99" rx="104.12" ry="28.99"/>
<text xml:space="preserve" text-anchor="middle" x="2058.07" y="-32.19" font-family="Times New Roman,serif" font-size="14.00">branch_1773480740184</text>
<text xml:space="preserve" text-anchor="middle" x="2058.07" y="-15.69" font-family="Times New Roman,serif" font-size="14.00">fitness:114.36</text>
</g>
<!-- branch_1773480740184_7&#45;&gt;branch_1773480740184_8 -->
<g id="edge8" class="edge">
<title>branch_1773480740184_7&#45;&gt;branch_1773480740184_8</title>
<path fill="none" stroke="black" d="M1918.26,-28.99C1926.21,-28.99 1934.27,-28.99 1942.29,-28.99"/>
<polygon fill="black" stroke="black" points="1942.08,-32.49 1952.08,-28.99 1942.08,-25.49 1942.08,-32.49"/>
</g>
<!-- branch_1773480740184_9 -->
<g id="node10" class="node">
<title>branch_1773480740184_9</title>
<ellipse fill="none" stroke="black" cx="2302.31" cy="-28.99" rx="104.12" ry="28.99"/>
<text xml:space="preserve" text-anchor="middle" x="2302.31" y="-32.19" font-family="Times New Roman,serif" font-size="14.00">branch_1773480740184</text>
<text xml:space="preserve" text-anchor="middle" x="2302.31" y="-15.69" font-family="Times New Roman,serif" font-size="14.00">fitness:116.02</text>
</g>
<!-- branch_1773480740184_8&#45;&gt;branch_1773480740184_9 -->
<g id="edge9" class="edge">
<title>branch_1773480740184_8&#45;&gt;branch_1773480740184_9</title>
<path fill="none" stroke="black" d="M2162.5,-28.99C2170.45,-28.99 2178.51,-28.99 2186.53,-28.99"/>
<polygon fill="black" stroke="black" points="2186.32,-32.49 2196.32,-28.99 2186.32,-25.49 2186.32,-32.49"/>
</g>
<!-- branch_1773480740184_10 -->
<g id="node11" class="node">
<title>branch_1773480740184_10</title>
<ellipse fill="none" stroke="black" cx="2546.55" cy="-28.99" rx="104.12" ry="28.99"/>
<text xml:space="preserve" text-anchor="middle" x="2546.55" y="-32.19" font-family="Times New Roman,serif" font-size="14.00">branch_1773480740184</text>
<text xml:space="preserve" text-anchor="middle" x="2546.55" y="-15.69" font-family="Times New Roman,serif" font-size="14.00">fitness:119.88</text>
</g>
<!-- branch_1773480740184_9&#45;&gt;branch_1773480740184_10 -->
<g id="edge10" class="edge">
<title>branch_1773480740184_9&#45;&gt;branch_1773480740184_10</title>
<path fill="none" stroke="black" d="M2406.74,-28.99C2414.7,-28.99 2422.76,-28.99 2430.78,-28.99"/>
<polygon fill="black" stroke="black" points="2430.56,-32.49 2440.56,-28.99 2430.56,-25.49 2430.56,-32.49"/>
</g>
<!-- branch_1773480740184_11 -->
<g id="node12" class="node">
<title>branch_1773480740184_11</title>
<ellipse fill="none" stroke="black" cx="2790.79" cy="-28.99" rx="104.12" ry="28.99"/>
<text xml:space="preserve" text-anchor="middle" x="2790.79" y="-32.19" font-family="Times New Roman,serif" font-size="14.00">branch_1773480740184</text>
<text xml:space="preserve" text-anchor="middle" x="2790.79" y="-15.69" font-family="Times New Roman,serif" font-size="14.00">fitness:121.54</text>
</g>
<!-- branch_1773480740184_10&#45;&gt;branch_1773480740184_11 -->
<g id="edge11" class="edge">
<title>branch_1773480740184_10&#45;&gt;branch_1773480740184_11</title>
<path fill="none" stroke="black" d="M2650.99,-28.99C2658.94,-28.99 2667,-28.99 2675.02,-28.99"/>
<polygon fill="black" stroke="black" points="2674.81,-32.49 2684.81,-28.99 2674.81,-25.49 2674.81,-32.49"/>
</g>
</g>
</svg>


