<svg width="20" height="21" viewBox="0 0 20 21" fill="none" xmlns="http://www.w3.org/2000/svg">
<g clip-path="url(#clip0_24346_19840)">
<path d="M4.16671 13.8332L0.833374 17.1665M4.16671 13.8332L7.50004 17.1665M4.16671 13.8332V19.6665" stroke="#A0B0C0" stroke-width="1.5" stroke-miterlimit="10" stroke-linecap="round" stroke-linejoin="round"/>
<path d="M9.71997 1.29883C9.90122 1.23274 10.1004 1.23329 10.2815 1.2998L18.3635 4.45312L10.2776 7.60938L10.2581 7.61719C10.179 7.65059 10.0939 7.66694 10.0081 7.66602H9.99536C9.90303 7.66651 9.81127 7.64928 9.72583 7.61426L9.71411 7.60938L1.63599 4.45312L9.71997 1.29883Z" fill="#A0B0C0" stroke="#A0B0C0" stroke-width="1.5"/>
<path d="M5.47363 8.64404L0.75 10.8364V6.80615L5.47363 8.64404Z" fill="#A0B0C0" stroke="#A0B0C0" stroke-width="1.5"/>
<path d="M19.725 6.12456C19.6438 6.06998 19.5509 6.03547 19.4538 6.02388C19.3567 6.01229 19.2583 6.02395 19.1666 6.05789L11.4416 9.06622C11.1991 9.15066 10.9888 9.30819 10.8396 9.51713C10.6903 9.72606 10.6095 9.97613 10.6083 10.2329V16.8996C10.6077 17.0017 10.6326 17.1024 10.6806 17.1926C10.7286 17.2828 10.7982 17.3596 10.8833 17.4162C10.9853 17.489 11.108 17.527 11.2333 17.5246C11.31 17.5228 11.386 17.5087 11.4583 17.4829L19.1916 14.4662C19.4263 14.375 19.6277 14.2145 19.7691 14.0062C19.9105 13.7978 19.9852 13.5514 19.9833 13.2996V6.63289C19.9865 6.53326 19.9646 6.43442 19.9194 6.34555C19.8742 6.25668 19.8073 6.18066 19.725 6.12456Z" fill="#A0B0C0"/>
</g>
<defs>
<clipPath id="clip0_24346_19840">
<rect width="20" height="20" fill="white" transform="translate(0 0.5)"/>
</clipPath>
</defs>
</svg>
