<svg width="20" height="21" viewBox="0 0 20 21" fill="none" xmlns="http://www.w3.org/2000/svg">
<path d="M17.5869 16.6807C18.2316 16.036 18.5937 15.1617 18.5937 14.25C18.5937 13.3383 18.2316 12.464 17.5869 11.8193C16.9423 11.1747 16.068 10.8125 15.1562 10.8125H4.84375C3.93207 10.8125 3.05772 11.1747 2.41307 11.8193C1.76842 12.464 1.40625 13.3383 1.40625 14.25C1.40625 15.1617 1.76842 16.036 2.41307 16.6807" stroke="#A0B0C0" stroke-width="1.5" stroke-miterlimit="10" stroke-linecap="round" stroke-linejoin="round"/>
<path d="M18.5028 13.4656L16.1439 3.4144C16.0259 2.91133 15.7414 2.4629 15.3364 2.14189C14.9316 1.82087 14.43 1.64613 13.9133 1.646H6.08728C5.57043 1.64595 5.06874 1.82063 4.66368 2.14165C4.25862 2.46268 3.97397 2.9112 3.85596 3.4144L1.49707 13.4656" stroke="#A0B0C0" stroke-width="1.5" stroke-miterlimit="10" stroke-linecap="round" stroke-linejoin="round"/>
<path d="M10 19.6668L6 16.3335M10 19.6668L14 16.3335M10 19.6668V13.8335" stroke="#A0B0C0" stroke-width="1.5" stroke-miterlimit="10" stroke-linecap="round" stroke-linejoin="round"/>
</svg>
