<svg width="20" height="21" viewBox="0 0 20 21" fill="none" xmlns="http://www.w3.org/2000/svg">
<path d="M17.6993 8.43069C17.8675 8.43069 18.0288 8.36394 18.1477 8.24513C18.2666 8.12633 18.3334 7.96519 18.3334 7.79716C18.3334 7.62914 18.2666 7.468 18.1477 7.34919C18.0288 7.23039 17.8675 7.16364 17.6993 7.16364L3.34543 2.23481C3.12098 2.15803 2.87949 2.1457 2.64838 2.19923C2.41727 2.25276 2.20583 2.36999 2.03808 2.53761C1.87033 2.70524 1.753 2.91652 1.69944 3.14745C1.64587 3.37838 1.65821 3.6197 1.73505 3.84397L6.73103 18.1996C6.73103 18.3677 6.79782 18.5288 6.91672 18.6476C7.03562 18.7664 7.19688 18.8332 7.36503 18.8332C7.53318 18.8332 7.69444 18.7664 7.81334 18.6476C7.93224 18.5288 7.99904 18.3677 7.99904 18.1996L10.5351 11.0281L17.6993 8.43069Z" stroke="#A0B0C0" stroke-width="1.5" stroke-linecap="round" stroke-linejoin="round"/>
<path d="M13.4816 19.9257C13.4073 19.9257 13.3413 19.8999 13.2836 19.8482C13.2341 19.7966 13.2135 19.732 13.2217 19.6546L13.4197 18.2473H12.3679C12.2854 18.2473 12.2153 18.2215 12.1576 18.1698C12.1081 18.1096 12.0833 18.0364 12.0833 17.9504V17.2274C12.0833 17.1327 12.1081 17.0595 12.1576 17.0079C12.2153 16.9562 12.2854 16.9304 12.3679 16.9304H13.6053L13.8899 14.968H12.6896C12.6071 14.968 12.537 14.9421 12.4793 14.8905C12.4298 14.8302 12.405 14.7571 12.405 14.671V13.948C12.405 13.8533 12.4298 13.7802 12.4793 13.7285C12.537 13.6769 12.6071 13.6511 12.6896 13.6511H14.0755L14.2859 12.2438C14.3024 12.1749 14.3313 12.1147 14.3725 12.063C14.422 12.0028 14.488 11.9727 14.5705 11.9727H15.2882C15.3624 11.9727 15.4243 11.9985 15.4738 12.0501C15.5233 12.1018 15.5439 12.1663 15.5356 12.2438L15.3377 13.6511H16.8844L17.0948 12.2438C17.1113 12.1749 17.1401 12.1147 17.1814 12.063C17.2309 12.0028 17.2969 11.9727 17.3794 11.9727H18.0971C18.1713 11.9727 18.2332 11.9985 18.2827 12.0501C18.3322 12.1018 18.3528 12.1663 18.3445 12.2438L18.1466 13.6511H19.186C19.2685 13.6511 19.3345 13.6769 19.384 13.7285C19.4417 13.7802 19.4706 13.8533 19.4706 13.948V14.671C19.4706 14.7571 19.4417 14.8302 19.384 14.8905C19.3345 14.9421 19.2685 14.968 19.186 14.968H17.9609L17.6887 16.9304H18.8642C18.9467 16.9304 19.0127 16.9562 19.0622 17.0079C19.12 17.0595 19.1488 17.1327 19.1488 17.2274V17.9504C19.1488 18.0364 19.12 18.1096 19.0622 18.1698C19.0127 18.2215 18.9467 18.2473 18.8642 18.2473H17.4907L17.2928 19.6546C17.268 19.8353 17.1731 19.9257 17.0082 19.9257H16.2905C16.2162 19.9257 16.1502 19.8999 16.0925 19.8482C16.043 19.7966 16.0224 19.732 16.0306 19.6546L16.2286 18.2473H14.6818L14.4839 19.6546C14.4591 19.8353 14.3642 19.9257 14.1993 19.9257H13.4816ZM14.8798 16.9304H16.4142L16.6988 14.968H15.1521L14.8798 16.9304Z" fill="#A0B0C0"/>
</svg>
