<svg width="20" height="21" viewBox="0 0 20 21" fill="none" xmlns="http://www.w3.org/2000/svg">
<path d="M10.8334 6.3374H15.8334" stroke="#A0B0C0" stroke-width="1.5" stroke-linecap="round" stroke-linejoin="round"/>
<path d="M13.3334 3.8374L13.3334 8.8374" stroke="#A0B0C0" stroke-width="1.5" stroke-linecap="round" stroke-linejoin="round"/>
<path d="M18.3333 11.2749H1.66663" stroke="#A0B0C0" stroke-width="1.5" stroke-linecap="round"/>
<path d="M1.95365 8.6001C1.86422 8.6001 1.78821 8.56708 1.72561 8.50104C1.66301 8.435 1.63171 8.35481 1.63171 8.26048V1.58123C1.63171 1.48689 1.66301 1.4067 1.72561 1.34066C1.78821 1.27463 1.86422 1.24161 1.95365 1.24161H3.05358C3.143 1.24161 3.21902 1.27463 3.28161 1.34066C3.34421 1.4067 3.37551 1.48689 3.37551 1.58123V2.16142C3.60802 1.85953 3.90312 1.60953 4.26082 1.41142C4.62747 1.20387 5.07906 1.1001 5.61562 1.1001C6.16111 1.1001 6.63507 1.23217 7.03748 1.49632C7.4399 1.75104 7.74841 2.11425 7.96304 2.58595C8.1866 3.05765 8.29838 3.62368 8.29838 4.28406V8.26048C8.29838 8.35481 8.26708 8.435 8.20448 8.50104C8.14189 8.56708 8.06587 8.6001 7.97645 8.6001H6.79603C6.70661 8.6001 6.6306 8.56708 6.568 8.50104C6.5054 8.435 6.4741 8.35481 6.4741 8.26048V4.36897C6.4741 3.8218 6.34444 3.39255 6.0851 3.08123C5.83471 2.76991 5.46807 2.61425 4.98517 2.61425C4.52016 2.61425 4.14904 2.76991 3.87182 3.08123C3.5946 3.39255 3.45599 3.8218 3.45599 4.36897V8.26048C3.45599 8.35481 3.42469 8.435 3.3621 8.50104C3.2995 8.56708 3.22349 8.6001 3.13406 8.6001H1.95365Z" fill="#A0B0C0"/>
<rect x="5" y="13.7749" width="13.3333" height="4.16667" rx="2" stroke="#A0B0C0" stroke-width="1.5"/>
</svg>
